<?xml version="1.0" encoding="UTF-8"?>
<svg id="Layer_1" data-name="Layer 1" xmlns="http://www.w3.org/2000/svg" viewBox="0 0 225 225">
  <defs>
    <style>
      .cls-1 {
        fill: #191618;
      }
    </style>
  </defs>
  <path id="Initiator" class="cls-1" d="M217.5,112.89c0-58.2-47.01-105.39-105-105.39S7.5,54.68,7.5,112.89c0,49.42,33.9,90.89,79.63,102.28v-70.08h-21.65v-32.2h21.65v-13.88c0-35.87,16.17-52.5,51.26-52.5,6.65,0,18.13,1.31,22.83,2.62v29.19c-2.48-.26-6.78-.39-12.13-.39-17.22,0-23.87,6.55-23.87,23.56v11.39h34.3l-5.89,32.2h-28.4v72.41c51.99-6.3,92.28-50.73,92.28-104.61Z"/>
</svg>