<?xml version="1.0" encoding="UTF-8"?>
<svg id="Layer_1" data-name="Layer 1" xmlns="http://www.w3.org/2000/svg" viewBox="0 0 74 74">
  <defs>
    <style>
      .gk{
        fill: none;
        stroke: #191618;
        stroke-linecap: round;
        stroke-linejoin: round;
        stroke-width: 6px;
      }
    </style>
  </defs>
  <path class="gk" d="M65.44,22.78H8.56c-1.96,0-3.56,1.59-3.56,3.56v7.11c0,1.96,1.59,3.56,3.56,3.56h56.89c1.96,0,3.56-1.59,3.56-3.56v-7.11c0-1.96-1.59-3.56-3.56-3.56Z"/>
  <path class="gk" d="M37,22.78v46.22"/>
  <path class="gk" d="M61.89,37v24.89c0,1.89-.75,3.69-2.08,5.03-1.33,1.33-3.14,2.08-5.03,2.08H19.22c-1.89,0-3.69-.75-5.03-2.08-1.33-1.33-2.08-3.14-2.08-5.03v-24.89"/>
  <path class="gk" d="M21,22.78c-2.36,0-4.62-.94-6.29-2.6-1.67-1.67-2.6-3.93-2.6-6.29s.94-4.62,2.6-6.29c1.67-1.67,3.93-2.6,6.29-2.6,3.43-.06,6.79,1.6,9.65,4.78,2.85,3.17,5.07,7.7,6.35,13,1.29-5.3,3.5-9.83,6.35-13,2.85-3.17,6.22-4.84,9.65-4.78,2.36,0,4.62.94,6.29,2.6,1.67,1.67,2.6,3.93,2.6,6.29s-.94,4.62-2.6,6.29c-1.67,1.67-3.93,2.6-6.29,2.6"/>
</svg>