<?xml version="1.0" encoding="UTF-8"?>
<svg id="Layer_1" data-name="Layer 1" xmlns="http://www.w3.org/2000/svg" viewBox="0 0 225 225">
  <defs>
    <style>
      .cls-1 {
        fill: #ece8a4;
      }
    </style>
  </defs>
  <path class="cls-1" d="M190.21,209.82H19.91c-6.43-.23-12.15-6.05-12.24-12.48V27.8c.1-6.76,6.35-12.71,13.09-12.61h168.33c7.65-.15,13.6,6.85,13.85,14.21l-.02,166.9c-.48,6.5-5.82,13.5-12.73,13.52ZM49.07,42.35c-12.87,1.33-19.04,16.94-10.93,27.01s24.96,7.06,28.78-5.42c3.58-11.71-5.73-22.84-17.85-21.59ZM173.23,180.85v-58.06c-.93-17.34-6.01-32.56-24.96-35.95-12.57-2.24-26.19.04-34.31,10.64-.63.82-1.59,2.76-2.03,3.22-.3.31-.46.29-.87.25v-12.48h-27.47v92.38h28.72v-49.82c.65-10.4,4.15-19.21,15.84-19.85,12.42-.68,16.04,7.64,16.63,18.6v51.07s28.46,0,28.46,0ZM65.36,88.47h-28.47v92.38h28.47v-92.38Z"/>
  <path class="cls-1" d="M210.87,171.92c8.37-1.45,8.6,11.09.69,10.43-5.87-.49-6.22-9.47-.69-10.43ZM211.63,172.67c-5.48.54-4.97,9.85,1.62,8.63,4.83-.9,3.9-9.17-1.62-8.63Z"/>
  <path class="cls-1" d="M210.18,174.49c.2-.64,2.36-.39,2.96-.21,1.88.57,1.76,2.94-.21,3.08-.1.1,1.77,2.26,1.5,2.49-.95.83-1.83-1.74-2.12-2-1.67-1.52-.98,1.86-1.13,2-.04.03-1,.05-1,0,0-1.1-.22-4.64,0-5.37ZM211.18,176.61c3.11.49,3.13-1.99,0-1.5v1.5Z"/>
</svg>