<?xml version="1.0" encoding="UTF-8"?>
<svg id="Layer_1" data-name="Layer 1" xmlns="http://www.w3.org/2000/svg" viewBox="0 0 225 225">
  <defs>
    <style>
      .cls-1 {
        fill: #ece8a4;
      }
    </style>
  </defs>
  <path class="cls-1" d="M71.08,13.19c-10.64.5-17.91,2.21-24.26,4.69-6.57,2.56-12.15,6-17.69,11.56-5.55,5.57-8.96,11.15-11.5,17.73-2.46,6.37-4.13,13.64-4.6,24.28-.47,10.67-.57,14.07-.52,41.22.05,27.15.17,30.56.68,41.23.51,10.64,2.21,17.9,4.69,24.26,2.57,6.57,6,12.14,11.57,17.69,5.57,5.55,11.15,8.95,17.74,11.5,6.36,2.46,13.63,4.13,24.28,4.6,10.67.47,14.07.57,41.22.52,27.16-.05,30.57-.17,41.23-.68,10.64-.51,17.9-2.21,24.26-4.69,6.57-2.57,12.15-6,17.69-11.57,5.54-5.57,8.95-11.15,11.5-17.74,2.46-6.36,4.14-13.63,4.6-24.27.47-10.67.58-14.08.52-41.23-.05-27.15-.17-30.56-.68-41.22-.51-10.65-2.21-17.91-4.69-24.26-2.57-6.57-6-12.14-11.56-17.69-5.57-5.54-11.15-8.96-17.74-11.5-6.36-2.46-13.63-4.14-24.28-4.6-10.67-.47-14.07-.58-41.23-.52-27.15.05-30.56.17-41.22.68M72.25,193.97c-9.75-.42-15.04-2.04-18.57-3.4-4.67-1.81-8.01-3.98-11.52-7.46-3.5-3.5-5.68-6.82-7.5-11.48-1.37-3.53-3.02-8.82-3.48-18.57-.5-10.54-.61-13.7-.66-40.4-.05-26.69.05-29.86.51-40.41.42-9.74,2.05-15.04,3.4-18.57,1.81-4.68,3.97-8.01,7.46-11.52,3.5-3.51,6.82-5.68,11.49-7.5,3.53-1.38,8.81-3.01,18.56-3.48,10.55-.5,13.71-.61,40.4-.66,26.7-.05,29.86.04,40.41.51,9.74.42,15.04,2.04,18.57,3.4,4.68,1.81,8.01,3.96,11.52,7.46,3.51,3.5,5.68,6.81,7.5,11.49,1.38,3.52,3.01,8.81,3.47,18.55.5,10.55.62,13.71.66,40.4.05,26.7-.05,29.86-.51,40.41-.42,9.75-2.04,15.05-3.4,18.58-1.81,4.67-3.97,8-7.46,11.51-3.49,3.5-6.82,5.68-11.49,7.5-3.52,1.37-8.81,3.01-18.55,3.48-10.55.5-13.71.61-40.41.66-26.69.05-29.85-.05-40.4-.51M153.77,59.05c.01,6.62,5.4,11.98,12.02,11.97,6.63-.01,11.99-5.39,11.98-12.02-.01-6.62-5.4-11.99-12.02-11.98-6.63.01-11.99,5.4-11.98,12.02M61.15,112.6c.05,28.36,23.09,51.3,51.44,51.24,28.36-.06,51.31-23.08,51.25-51.44-.06-28.35-23.09-51.3-51.45-51.25-28.35.06-51.3,23.09-51.24,51.45M79.17,112.56c-.03-18.41,14.87-33.36,33.27-33.39,18.41-.04,33.36,14.86,33.4,33.27.04,18.41-14.86,33.36-33.27,33.4-18.4.04-33.36-14.86-33.39-33.27"/>
</svg>