<?xml version="1.0" encoding="UTF-8"?>
<svg id="Layer_1" data-name="Layer 1" xmlns="http://www.w3.org/2000/svg" viewBox="0 0 64 64">
  <defs>
    <style>
      .medal_1 {
        fill: none;
      }

      .medal_2 {
        fill: none;
        stroke: #ece8a4;
        stroke-linecap: round;
        stroke-linejoin: round;
        stroke-width: 2px;
      }
    </style>
  </defs>
  <rect class="medal_1" width="64" height="64"/>
  <path class="medal_2" d="M38,33.53l2.61,14.71c.03.18,0,.35-.08.51s-.2.29-.35.38c-.15.09-.33.13-.5.11s-.34-.08-.48-.19l-6.17-4.63c-.3-.23-.67-.34-1.03-.34s-.74.13-1.03.34l-6.19,4.63c-.14.11-.3.18-.48.19-.18.01-.35-.03-.5-.11-.15-.09-.28-.23-.35-.38s-.1-.34-.08-.51l2.61-14.71"/>
  <path class="medal_2" d="M31.99,35.45c5.72,0,10.35-4.63,10.35-10.35s-4.63-10.35-10.35-10.35-10.35,4.63-10.35,10.35,4.63,10.35,10.35,10.35Z"/>
</svg>